# xmcd
#
# Track frame offsets:
#	150
#	9717
#	19092
#	29237
#	39155
#	49485
#	60100
#	71140
#	80125
#	91090
#	100367
#	112137
#	123130
#	133422
#	143207
#	156405
#	166455
#	177015
#	186992
#	196570
#	205747
#	214812
#
# Disc length: 3051 seconds
#
# Revision: 1
# Processed by: cddbd v1.5.2PL0 Copyright (c) Steve Scherf et al.
# Submitted via: audiograbber 1.83.01
#
DISCID=400be916
DTITLE=Various Artist - Stompin' 23: Crazed Rhythm 'n' Blues Pounders
DYEAR=1900
DGENRE=Blues
TTITLE0=Joe Boots - Well Alright
TTITLE1=Prince Love and His Royal Knights - Don't Want No War
TTITLE2=Elroy Peace and Bow Ribbons - Quick Like
TTITLE3=Slim Cole - They Call Me Slim Cole
TTITLE4=Evelyn Freeman - Didn't It Rain
TTITLE5=Jimmy Raye - Hey Let's Dance
TTITLE6=The Silvertones - Midnight Thunder
TTITLE7=Ben Hughes - Sack
TTITLE8=Mr. Blues and Johnny Bird Orch - The Last Laugh Will Be On You
TTITLE9=Harvey and Doc - Oh, Baby!
TTITLE10=The Silvertones - Dimples
TTITLE11=Sherman Williams - I Lost My Baby
TTITLE12=Slim Saunders - Let's Have Some Fun
TTITLE13=Tommy Lomonte - Yeah Yeah Yeah
TTITLE14=Joe Boots - Rock'n'Roll Jungle Girl
TTITLE15=Big Red McHouston - I'm Tired
TTITLE16=George Young - Buggin' Baby
TTITLE17=The Citations 7 - Justine
TTITLE18=Sonny's Nu Kat Orchestra - She Is Mine
TTITLE19=Shirley Ann Lee - How Can I Lose
TTITLE20=George Young - Shaking Shelley
TTITLE21=Slim Saunders - Get Away
EXTD=
EXTT0=
EXTT1=
EXTT2=
EXTT3=
EXTT4=
EXTT5=
EXTT6=
EXTT7=
EXTT8=
EXTT9=
EXTT10=
EXTT11=
EXTT12=
EXTT13=
EXTT14=
EXTT15=
EXTT16=
EXTT17=
EXTT18=
EXTT19=
EXTT20=
EXTT21=
PLAYORDER=
